# AST/ASF file generated using VICON BodyLanguage
# -----------------------------------------------
:version 1.10
:name VICON
:units
  mass 1.0
  length 0.45
  angle deg
:documentation
   .ast/.asf automatically generated from VICON data using
   VICON BodyBuilder and BodyLanguage model FoxedUp or BRILLIANT.MOD
:root
   order TX TY TZ RX RY RZ
   axis XYZ
   position 0 0 0  
   orientation 0 0 0 
:bonedata
  begin
     id 1 
     name lhipjoint
     direction 0.630082 -0.636569 0.44472 
     length 2.82754 
     axis 0 0 0  XYZ
  end
  begin
     id 2 
     name lfemur
     direction 0.34202 -0.939693 0  
     length 7.26371  
     axis 0 0 20  XYZ
    dof rx ry rz
    limits (-160.0 20.0)
           (-70.0 70.0)
           (-60.0 70.0)
  end
  begin
     id 3 
     name ltibia
     direction 0.34202 -0.939693 0   
     length 7.88616   
     axis 0 0 20   XYZ
    dof rx
    limits (-10.0 170.0)
  end
  begin
     id 4 
     name lfoot
     direction 0.0603448 -0.165796 0.984312   
     length 1.77861   
     axis -90 7.62852e-016 20   XYZ
    dof rx rz
    limits (-45.0 90.0)
           (-70.0 20.0)
  end
  begin
     id 5 
     name ltoes
     direction 1.53577e-011 -4.21876e-011 1   
     length 0.902235   
     axis -90 7.62852e-016 20   XYZ
    dof rx
    limits (-90.0 20.0)
  end
  begin
     id 6 
     name rhipjoint
     direction -0.656778 -0.61817 0.431866   
     length 2.9117  
     axis 0 0 0  XYZ 
  end
  begin
     id 7 
     name rfemur
     direction -0.34202 -0.939693 0   
     length 6.81603   
     axis 0 0 -20   XYZ
    dof rx ry rz
    limits (-160.0 20.0)
           (-70.0 70.0)
           (-70.0 60.0)
  end
  begin
     id 8 
     name rtibia
     direction -0.34202 -0.939693 0   
     length 8.05997   
     axis 0 0 -20   XYZ
    dof rx
    limits (-10.0 170.0)
 end
 begin
     id 9 
     name rfoot
     direction -0.0862404 -0.236944 0.967688   
     length 1.84899  
     axis -90 -7.62852e-016 -20   XYZ
    dof rx rz
    limits (-45.0 90.0)
           (-20.0 70.0)
  end
  begin
     id 10 
     name rtoes
     direction -1.53561e-011 -4.21798e-011 1   
     length 0.931579   
     axis -90 -7.62852e-016 -20   XYZ
    dof rx
    limits (-90.0 20.0)
  end
  begin
     id 11 
     name lowerback
     direction -0.0110203 0.991769 -0.127564   
     length 2.05686   
     axis 0 0 0   XYZ
    dof rx ry rz
    limits (-20.0 45.0)
           (-30.0 30.0)
           (-30.0 30.0)
  end
  begin
     id 12 
     name upperback
     direction 0.0109719 0.99993 -0.00432479   
     length 2.06234   
     axis 0 0 0   XYZ
    dof rx ry rz
    limits (-20.0 45.0)
           (-30.0 30.0)
           (-30.0 30.0)
  end
  begin
     id 13 
     name thorax
     direction 0.0173308 0.998351 0.0547306   
     length 2.09856   
     axis 0 0 0   XYZ
    dof rx ry rz
    limits (-20.0 45.0)
           (-30.0 30.0)
           (-30.0 30.0)
  end
  begin
     id 14 
     name lowerneck
     direction -0.0311736 0.989033 0.144366   
     length 1.98151   
     axis 0 0 0   XYZ
    dof rx ry rz
    limits (-20.0 45.0)
           (-30.0 30.0)
           (-30.0 30.0)
  end
  begin
     id 15 
     name upperneck
     direction 0.0421057 0.975772 -0.214698   
     length 2.01457   
     axis 0 0 0   XYZ
    dof rx ry rz
    limits (-20.0 45.0)
           (-30.0 30.0)
           (-30.0 30.0)
  end
  begin
     id 16
     name head
     direction 0.0136911 0.995958 -0.0887718  
     length 2.03562  
     axis 0 0 0   XYZ
    dof rx ry rz
    limits (-20.0 45.0)
           (-30.0 30.0)
           (-30.0 30.0)
  end
  begin
     id 17 
     name lclavicle
     direction 0.915335 0.396201 0.0720134  
     length 4.16217  
     axis 0 0 0   XYZ
    dof ry rz
    limits (-20.0 10.0)
           (0.0 20.0)
  end
  begin
     id 18 
     name lhumerus
     direction 1 -4.48965e-011 6.383e-018   
     length 4.93042   
     axis -180 -30 -90   XYZ
    dof rx ry rz
    limits (-60.0 90.0)
           (-90.0 90.0)
           (-90.0 90.0)
  end
  begin
     id 19
     name lradius
     direction 1 -4.48972e-011 8.8689e-027   
     length 3.68177   
     axis -180 -30 -90   XYZ
    dof rx
    limits (-10.0 170.0)
  end
  begin
     id 20
     name lwrist
     direction 1 -4.48953e-011 1.17971e-026   
     length 1.84089   
     axis -7.69454e-015 90 90   XYZ
    dof ry
    limits (-180.0 0.0)
 end
  begin
     id 21 
     name lhand
     direction 1 -4.49027e-011 2.35802e-026   
     length 0.721479   
     axis -1.50533e-014 90 90   XYZ
    dof rx rz
    limits (-90.0 90.0)
           (-45.0 45.0)
  end
  begin
     id 22 
     name lfingers
     direction 1 -4.48915e-011 4.72027e-026   
     length 0.581675   
     axis -3.01059e-014 90 90   XYZ
    dof rx
    limits (0.0 90.0)
  end
  begin
     id 23
     name lthumb
     direction 0.707107 -6.34948e-011 0.707107   
     length 0.835172   
     axis -90 45 -5.12164e-014   XYZ
    dof rx rz
    limits (-45.0 45.0)
           (-45.0 45.0)
  end
  begin
     id 24 
     name rclavicle
     direction -0.882781 0.469197 0.0234974   
     length 3.95647  
     axis 0 0 0   XYZ 
    dof ry rz
    limits (-10.0 20.0)
           (-20.0 0.0)
  end
  begin
     id 25 
     name rhumerus
     direction -1 -4.48965e-011 -1.54906e-018  
     length 5.07905   
     axis -180 30 90   XYZ
    dof rx ry rz
    limits (-90.0 60.0)
           (-90.0 90.0)
           (-90.0 90.0)
  end
  begin
     id 26 
     name rradius
     direction -1 -4.48972e-011 5.47489e-027   
     length 3.54394   
     axis -180 30 90   XYZ
    dof rx
    limits (-10.0 170.0)
  end
  begin
     id 27 
     name rwrist
     direction -1 -4.48955e-011 1.17969e-026   
     length 1.77197   
     axis -7.69454e-015 -90 -90   XYZ
    dof ry
    limits (-180.0 0.0)
  end
  begin
     id 28
     name rhand
     direction -1 -4.48982e-011 2.35888e-026   
     length 0.681156   
     axis -1.50533e-014 -90 -90   XYZ
    dof rx rz
    limits (-90.0 90.0)
           (-45.0 45.0)
  end
  begin
     id 29
     name rfingers
     direction -1 -4.48955e-011 4.71877e-026   
     length 0.549165   
     axis -3.01059e-014 -90 -90   XYZ
    dof rx
    limits (0.0 90.0)
  end
  begin
     id 30
     name rthumb
     direction -0.707107 -6.3491e-011 0.707107   
     length 0.788495   
     axis -90 -45 5.12164e-014   XYZ
    dof rx rz
    limits (-45.0 45.0)
           (-45.0 45.0)
  end
:hierarchy
  begin
    root lhipjoint rhipjoint lowerback
    lhipjoint lfemur
    lfemur ltibia
    ltibia lfoot
    lfoot ltoes
    rhipjoint rfemur
    rfemur rtibia
    rtibia rfoot
    rfoot rtoes
    lowerback upperback
    upperback thorax
    thorax lowerneck lclavicle rclavicle
    lowerneck upperneck
    upperneck head
    lclavicle lhumerus
    lhumerus lradius
    lradius lwrist
    lwrist lhand lthumb
    lhand lfingers
    rclavicle rhumerus
    rhumerus rradius
    rradius rwrist
    rwrist rhand rthumb
    rhand rfingers
  end

#!OML:ASF H:\Bending\Project 1\Capture day 1\Session 1\Subject.ASF
:FULLY-SPECIFIED
:DEGREES
55
root -10.5724 17.9207 -16.3639 -102.954 88.4419 -106.296
lowerback 6.07187 -0.123478 0.901344
upperback -2.11882 0.0100029 1.60784
thorax -5.61163 0.00958869 1.16382
lowerneck -22.7211 -4.54788 -7.42703
upperneck 29.162 -4.82742 4.35507
head 14.0734 -2.16883 2.14512
rclavicle -7.33018e-016 6.75868e-015
rhumerus -36.9323 -4.60749 -77.4311
rradius 28.1688
rwrist 22.2938
rhand -14.1574 -13.0277
rfingers 7.12502
rthumb 11.9774 -42.665
lclavicle -7.33018e-016 6.75868e-015
lhumerus -36.1463 13.7631 82.9105
lradius 23.1861
lwrist 12.9846
lhand -33.3254 5.9668
lfingers 7.12502
lthumb -6.52835 35.8462
rfemur 3.99784 -2.89377 12.9259
rtibia 4.77083e-015
rfoot -7.03609 -12.8362
rtoes -5.77946
lfemur -9.48494 -14.3715 -9.31394
ltibia 22.3875
lfoot -20.2284 10.5652
ltoes -16.6872
56
root -10.5712 17.9192 -16.361 -103.876 88.4129 -107.202
lowerback 6.0779 -0.0949852 0.959513
upperback -2.10634 0.0515773 1.58792
thorax -5.60247 0.0276242 1.10583
lowerneck -22.7091 -4.58228 -7.44806
upperneck 29.1286 -4.87602 4.37198
head 14.0613 -2.19006 2.14571
rclavicle 1.86361e-016 3.57812e-015
rhumerus -36.8988 -4.91436 -77.3521
rradius 28.0876
rwrist 22.3922
rhand -14.4301 -13.1056
rfingers 7.12502
rthumb 11.7143 -42.7581
lclavicle 1.86361e-016 3.57812e-015
lhumerus -36.0978 13.6523 82.9728
lradius 23.294
lwrist 13.1264
lhand -33.4625 5.9645
lfingers 7.12502
lthumb -6.66068 35.8397
rfemur 4.02125 -2.92146 12.9636
rtibia -1.59028e-015
rfoot -6.99049 -12.8549
rtoes -6.09417
lfemur -9.49136 -14.2782 -9.27896
ltibia 22.4116
lfoot -20.1797 10.4855
ltoes -16.8695
57
root -10.57 17.9178 -16.3576 -104.951 88.3842 -108.258
lowerback 6.08448 -0.0638357 1.01387
upperback -2.09264 0.0962111 1.56579
thorax -5.59228 0.0472598 1.04737
lowerneck -22.7037 -4.61873 -7.46776
upperneck 29.1026 -4.92655 4.38575
head 14.0539 -2.21229 2.14449
rclavicle 2.07481e-015 -3.57812e-015
rhumerus -36.8644 -5.18619 -77.2973
rradius 28.0076
rwrist 22.4372
rhand -14.6741 -13.2541
rfingers 7.12502
rthumb 11.479 -42.9198
lclavicle 2.07481e-015 -3.57812e-015
lhumerus -36.0417 13.5745 83.0186
lradius 23.4035
lwrist 13.1472
lhand -33.5655 5.93075
lfingers 7.12502
lthumb -6.76016 35.8028
rfemur 4.04967 -2.95364 12.9984
rtibia 1.51076e-014
rfoot -6.94732 -12.8686
rtoes -6.41125
lfemur -9.48966 -14.2515 -9.24581
ltibia 22.4282
lfoot -20.1584 10.4251
ltoes -16.7992
58
root -10.5685 17.9167 -16.3536 -106.111 88.3552 -109.397
lowerback 6.08941 -0.0354073 1.05479
upperback -2.0772 0.136163 1.54647
thorax -5.57918 0.0651214 0.999884
lowerneck -22.708 -4.64953 -7.47096
upperneck 29.0857 -4.96935 4.38387
head 14.0508 -2.23141 2.13567
rclavicle -1.04362e-015 -8.74653e-015
rhumerus -36.8326 -5.35351 -77.2907
rradius 27.9526
rwrist 22.4144
rhand -14.804 -13.3935
rfingers 7.12502
rthumb 11.3537 -43.0662
lclavicle -1.04362e-015 -8.74653e-015
lhumerus -35.9791 13.5305 83.0477
lradius 23.5126
lwrist 13.0536
lhand -33.5966 5.87458
lfingers 7.12502
lthumb -6.79013 35.7457
rfemur 4.08292 -2.98899 13.0296
rtibia -7.15625e-015
rfoot -6.9145 -12.8731
rtoes -6.63042
lfemur -9.47689 -14.3088 -9.21457
ltibia 22.436
lfoot -20.1723 10.4041
ltoes -16.5287
59
root -10.5669 17.916 -16.3491 -107.3 88.3258 -110.567
lowerback 6.08946 -0.0139608 1.07572
upperback -2.05992 0.165423 1.53475
thorax -5.56125 0.0785783 0.972671
lowerneck -22.7206 -4.66955 -7.44943
upperneck 29.0731 -4.99731 4.35756
head 14.0486 -2.24477 2.11557
rclavicle 2.60905e-016 5.56597e-015
rhumerus -36.8065 -5.38543 -77.3377
rradius 27.94
rwrist 22.3274
rhand -14.7849 -13.4505
rfingers 7.12502
rthumb 11.3722 -43.1221
lclavicle 2.60905e-016 5.56597e-015
lhumerus -35.9104 13.5096 83.0707
lradius 23.6264
lwrist 12.9005
lhand -33.5438 5.80971
lfingers 7.12502
lthumb -6.73918 35.6825
rfemur 4.11816 -3.02644 13.0577
rtibia 6.36111e-015
rfoot -6.8955 -12.867
rtoes -6.70544
lfemur -9.4556 -14.4339 -9.18508
ltibia 22.4348
lfoot -20.212 10.4289
ltoes -16.2092
60
root -10.5651 17.9155 -16.3444 -108.507 88.2982 -111.759
lowerback 6.08165 -0.00176067 1.07404
upperback -2.04134 0.180873 1.53338
thorax -5.53744 0.08624 0.970397
lowerneck -22.7373 -4.67785 -7.40864
upperneck 29.0585 -5.00805 4.30916
head 14.0436 -2.25177 2.08646
rclavicle -1.35422e-015 -7.95139e-016
rhumerus -36.7864 -5.30467 -77.4208
rradius 27.9703
rwrist 22.203
rhand -14.6435 -13.3924
rfingers 7.12502
rthumb 11.5086 -43.0565
lclavicle -1.35422e-015 -7.95139e-016
lhumerus -35.8361 13.4932 83.1059
lradius 23.7526
lwrist 12.7691
lhand -33.4286 5.75178
lfingers 7.12502
lthumb -6.62803 35.6281
rfemur 4.15099 -3.0655 13.0821
rtibia 3.18055e-015
rfoot -6.88837 -12.853
rtoes -6.66436
lfemur -9.43212 -14.5854 -9.1584
ltibia 22.425
lfoot -20.2557 10.4876
ltoes -16.0081
61
root -10.5634 17.9153 -16.3398 -109.767 88.2763 -113.01
lowerback 6.06467 0.0010886 1.05074
upperback -2.02259 0.182426 1.54164
thorax -5.5082 0.0879975 0.991762
lowerneck -22.7536 -4.67745 -7.36692
upperneck 29.0391 -5.00422 4.25379
head 14.0351 -2.2535 2.05709
rclavicle 9.93923e-017 -9.93923e-015
rhumerus -36.7683 -5.17804 -77.5067
rradius 28.0257
rwrist 22.0866
rhand -14.4496 -13.2425
rfingers 7.12502
rthumb 11.6955 -42.896
lclavicle 9.93923e-017 -9.93923e-015
lhumerus -35.7565 13.4623 83.1704
lradius 23.8969
lwrist 12.7302
lhand -33.2965 5.71417
lfingers 7.12502
lthumb -6.50047 35.5944
rfemur 4.17747 -3.10603 13.1004
rtibia -1.90833e-014
rfoot -6.88697 -12.8365
rtoes -6.59143
lfemur -9.41256 -14.7169 -9.13764
ltibia 22.4067
lfoot -20.2812 10.5541
ltoes -16.0136
62
root -10.5618 17.9153 -16.3352 -111.128 88.2633 -114.37
lowerback 6.03962 -0.00398415 1.01092
upperback -2.00508 0.172242 1.55562
thorax -5.4756 0.0846364 1.02961
lowerneck -22.7671 -4.67309 -7.34664
upperneck 29.0188 -4.99168 4.21407
head 14.0263 -2.25173 2.03938
rclavicle 1.2424e-015 -3.18055e-015
rhumerus -36.7457 -5.08323 -77.5637
rradius 28.0777
rwrist 22.0255
rhand -14.2807 -13.0677
rfingers 7.12502
rthumb 11.8585 -42.7119
lclavicle 1.2424e-015 -3.18055e-015
lhumerus -35.6728 13.406 83.2714
lradius 24.058
lwrist 12.8122
lhand -33.1963 5.70327
lfingers 7.12502
lthumb -6.40373 35.5865
rfemur 4.19585 -3.14783 13.1096
rtibia 8.74653e-015
rfoot -6.88542 -12.824
rtoes -6.56863
lfemur -9.39962 -14.7961 -9.12605
ltibia 22.3795
lfoot -20.277 10.5991
ltoes -16.1888
63
root -10.5604 17.9152 -16.331 -112.619 88.2605 -115.866
lowerback 6.00964 -0.0150971 0.961342
upperback -1.98998 0.153182 1.57008
thorax -5.44263 0.0772037 1.07436
lowerneck -22.7781 -4.66819 -7.36122
upperneck 29.0058 -4.97611 4.20797
head 14.0222 -2.24771 2.04196
rclavicle -1.73937e-016 -5.96354e-015
rhumerus -36.7133 -5.06818 -77.5785
rradius 28.1024
rwrist 22.0456
rhand -14.1869 -12.944
rfingers 7.12502
rthumb 11.9489 -42.583
lclavicle -1.73937e-016 -5.96354e-015
lhumerus -35.5877 13.3263 83.403
lradius 24.2282
lwrist 12.9904
lhand -33.1572 5.71675
lfingers 7.12502
lthumb -6.366 35.6011
rfemur 4.20733 -3.19035 13.1081
rtibia 0
rfoot -6.88167 -12.8199
rtoes -6.62662
lfemur -9.39148 -14.816 -9.12531
ltibia 22.3427
lfoot -20.2459 10.6022
ltoes -16.406
64
root -10.5591 17.9152 -16.3269 -114.216 88.2646 -117.469
lowerback 5.97861 -0.0306459 0.909232
upperback -1.97798 0.127841 1.58099
thorax -5.41217 0.0666432 1.11749
lowerneck -22.7883 -4.66336 -7.40678
upperneck 29.0081 -4.96092 4.23905
head 14.0268 -2.24182 2.06507
rclavicle -1.67725e-015 6.36111e-015
rhumerus -36.6721 -5.12621 -77.5633
rradius 28.0931
rwrist 22.1361
rhand -14.1747 -12.9168
rfingers 7.12502
rthumb 11.9607 -42.5551
lclavicle -1.67725e-015 6.36111e-015
lhumerus -35.5046 13.2337 83.549
lradius 24.3971
lwrist 13.2033
lhand -33.1756 5.74486
lfingers 7.12502
lthumb -6.38371 35.6287
rfemur 4.21525 -3.23292 13.0979
rtibia -3.81667e-014
rfoot -6.87903 -12.8246
rtoes -6.72478
lfemur -9.38375 -14.7931 -9.13289
ltibia 22.2971
lfoot -20.2011 10.5617
ltoes -16.5307
65
root -10.5577 17.9151 -16.3228 -115.835 88.2687 -119.092
lowerback 5.95004 -0.0493727 0.860049
upperback -1.96903 0.0983649 1.58738
thorax -5.3862 0.0538163 1.15473
lowerneck -22.7987 -4.65702 -7.463
upperneck 29.0271 -4.94725 4.29406
head 14.04 -2.23412 2.09975
rclavicle -1.0312e-015 2.0276e-014
rhumerus -36.6304 -5.1993 -77.55
rradius 28.0641
rwrist 22.25
rhand -14.2143 -12.9776
rfingers 7.12502
rthumb 11.9224 -42.6181
lclavicle -1.0312e-015 2.0276e-014
lhumerus -35.4275 13.1393 83.6921
lradius 24.5576
lwrist 13.3866
lhand -33.2183 5.77563
lfingers 7.12502
lthumb -6.42495 35.6582
rfemur 4.22388 -3.27511 13.0853
rtibia 7.15625e-015
rfoot -6.88417 -12.8348
rtoes -6.77916
lfemur -9.372 -14.7553 -9.14199
ltibia 22.2445
lfoot -20.1574 10.4934
ltoes -16.4977
66
root -10.5562 17.915 -16.3185 -117.358 88.2655 -120.617
lowerback 5.92579 -0.0699744 0.816034
upperback -1.96258 0.0668504 1.59169
thorax -5.36522 0.0397506 1.18711
lowerneck -22.8087 -4.64759 -7.50357
upperneck 29.0564 -4.93507 4.34873
head 14.057 -2.22518 2.13162
rclavicle -1.70209e-015 2.62396e-014
rhumerus -36.6004 -5.20896 -77.5725
rradius 28.042
rwrist 22.3234
rhand -14.2638 -13.0707
rfingers 7.12502
rthumb 11.8748 -42.7139
lclavicle -1.70209e-015 2.62396e-014
lhumerus -35.3597 13.0438 83.8234
lradius 24.7102
lwrist 13.5077
lhand -33.2424 5.7996
lfingers 7.12502
lthumb -6.44821 35.6814
rfemur 4.23644 -3.3169 13.0781
rtibia -1.03368e-014
rfoot -6.90345 -12.8447
rtoes -6.71259
lfemur -9.35536 -14.7284 -9.1443
ltibia 22.19
lfoot -20.1236 10.424
ltoes -16.3499
67
root -10.5544 17.9151 -16.3136 -118.457 88.2529 -121.716
lowerback 5.90384 -0.0877393 0.775422
upperback -1.95836 0.0396827 1.59843
thorax -5.34791 0.0277752 1.21965
lowerneck -22.8158 -4.63596 -7.50985
upperneck 29.0833 -4.92555 4.38027
head 14.0707 -2.21685 2.14782
rclavicle 1.66482e-015 1.51076e-014
rhumerus -36.5932 -5.10365 -77.6463
rradius 28.0519
rwrist 22.3093
rhand -14.2923 -13.1227
rfingers 7.12502
rthumb 11.8473 -42.7675
lclavicle 1.66482e-015 1.51076e-014
lhumerus -35.3027 12.9331 83.9472
lradius 24.8629
lwrist 13.5819
lhand -33.2194 5.81334
lfingers 7.12502
lthumb -6.42606 35.6959
rfemur 4.24938 -3.35144 13.0845
rtibia 3.57812e-014
rfoot -6.93694 -12.8493
rtoes -6.50589
lfemur -9.33715 -14.7175 -9.1318
ltibia 22.1405
lfoot -20.1019 10.3767
ltoes -16.2002
68
root -10.5528 17.9154 -16.3087 -119.002 88.2312 -122.264
lowerback 5.88613 -0.0990326 0.746587
upperback -1.95632 0.022543 1.60927
thorax -5.33544 0.0204752 1.24882
lowerneck -22.8169 -4.62631 -7.48201
upperneck 29.0947 -4.92207 4.3797
head 14.0745 -2.21206 2.1438
rclavicle 2.19906e-015 -9.14409e-015
rhumerus -36.6126 -4.89276 -77.7572
rradius 28.1019
rwrist 22.2056
rhand -14.2919 -13.0798
rfingers 7.12502
rthumb 11.8477 -42.7247
lclavicle 2.19906e-015 -9.14409e-015
lhumerus -35.2552 12.7841 84.0783
lradius 25.0266
lwrist 13.6603
lhand -33.1509 5.81952
lfingers 7.12502
lthumb -6.35991 35.704
rfemur 4.25806 -3.37604 13.1061
rtibia -1.27222e-014
rfoot -6.97651 -12.8457
rtoes -6.211
lfemur -9.32393 -14.7212 -9.1034
ltibia 22.1031
lfoot -20.0878 10.3663
ltoes -16.1636
69
root -10.5514 17.9157 -16.3041 -119.215 88.1999 -122.478
lowerback 5.87503 -0.102934 0.73592
upperback -1.95444 0.0171531 1.62394
thorax -5.32709 0.018489 1.27055
lowerneck -22.8102 -4.62481 -7.43886
upperneck 29.0834 -4.92932 4.35578
head 14.0664 -2.21383 2.12527
rclavicle -3.83903e-015 1.15295e-014
rhumerus -36.652 -4.64988 -77.8651
rradius 28.1786
rwrist 22.0616
rhand -14.2718 -12.9326
rfingers 7.12502
rthumb 11.867 -42.5764
lclavicle -3.83903e-015 1.15295e-014
lhumerus -35.2135 12.5785 84.2328
lradius 25.2071
lwrist 13.797
lhand -33.0668 5.82539
lfingers 7.12502
lthumb -6.27867 35.7123
rfemur 4.26715 -3.39652 13.1405
rtibia -3.97569e-015
rfoot -7.01608 -12.8338
rtoes -5.90179
lfemur -9.31783 -14.7283 -9.0625
ltibia 22.0822
lfoot -20.0735 10.3813
ltoes -16.2919
